<?xml version="1.0" standalone="no"?>
<!DOCTYPE svg PUBLIC "-//W3C//DTD SVG 20010904//EN"
 "http://www.w3.org/TR/2001/REC-SVG-20010904/DTD/svg10.dtd">
<svg version="1.0" xmlns="http://www.w3.org/2000/svg"
 width="2000.000000pt" height="2000.000000pt" viewBox="0 0 2000.000000 2000.000000"
 preserveAspectRatio="xMidYMid meet">
<metadata>
Created by potrace 1.11, written by Peter Selinger 2001-2013
</metadata>
<g transform="translate(0.000000,2000.000000) scale(0.100000,-0.100000)"
fill="#000000" stroke="none">
<path d="M11178 17835 c-2 -1 -73 -6 -158 -10 -85 -4 -175 -8 -200 -10 -25 -2
-81 -6 -125 -9 -44 -4 -93 -8 -110 -10 -32 -4 -148 -16 -205 -21 -19 -2 -53
-6 -75 -9 -22 -3 -76 -10 -120 -16 -44 -6 -91 -12 -105 -15 -14 -2 -43 -6 -65
-10 -80 -11 -332 -57 -415 -75 -195 -42 -238 -52 -295 -66 -33 -9 -67 -18 -75
-19 -195 -46 -740 -226 -905 -299 -16 -8 -79 -35 -140 -61 -148 -64 -453 -216
-600 -300 -111 -63 -384 -232 -395 -245 -3 -3 -34 -25 -70 -49 -124 -84 -334
-247 -484 -374 -145 -124 -487 -461 -610 -600 -446 -508 -834 -1135 -1096
-1773 -34 -82 -65 -158 -70 -169 -88 -202 -298 -905 -344 -1155 -2 -14 -11
-56 -19 -95 -9 -38 -18 -83 -20 -100 -3 -16 -17 -97 -32 -180 -31 -178 -32
-186 -40 -250 -4 -27 -8 -57 -10 -65 -4 -14 -7 -38 -20 -145 -3 -27 -8 -67
-10 -88 -3 -20 -7 -61 -10 -90 -3 -28 -7 -72 -10 -97 -15 -131 -25 -272 -42
-565 -16 -285 -8 -1179 12 -1385 2 -19 6 -78 10 -130 3 -52 8 -111 10 -130 2
-19 6 -64 10 -100 6 -71 7 -76 30 -260 9 -69 18 -145 21 -170 3 -25 7 -52 9
-60 2 -8 7 -35 10 -60 3 -25 8 -56 10 -70 3 -14 7 -41 10 -60 3 -19 13 -73 21
-120 9 -47 18 -96 21 -110 35 -195 153 -675 198 -805 8 -22 24 -74 36 -115 48
-162 193 -549 262 -700 14 -30 35 -77 47 -105 81 -185 250 -503 371 -700 106
-173 359 -534 445 -635 12 -14 59 -70 105 -125 113 -136 138 -163 336 -365 95
-96 227 -222 294 -280 67 -58 126 -110 133 -115 92 -84 571 -435 592 -435 3 0
31 -17 62 -38 127 -86 358 -214 592 -328 134 -66 402 -184 450 -199 14 -4 39
-13 55 -21 110 -50 677 -231 810 -258 45 -9 257 -59 285 -66 30 -9 314 -63
390 -74 14 -3 45 -8 70 -11 25 -4 53 -9 64 -11 10 -2 44 -6 75 -10 31 -3 63
-8 72 -9 14 -3 75 -11 154 -20 17 -2 62 -6 100 -10 39 -3 84 -8 100 -10 17 -2
68 -7 115 -10 47 -4 108 -8 135 -10 348 -27 1177 -27 1490 0 28 2 82 6 120 10
204 16 285 23 330 30 17 2 50 7 75 9 126 14 231 28 280 36 30 5 73 12 95 15
38 5 52 7 135 21 19 3 46 8 60 10 14 3 48 9 75 14 28 5 64 12 80 15 17 3 39 7
50 9 66 15 164 36 185 40 207 39 669 165 925 251 320 108 628 228 860 335 44
20 114 52 155 70 117 54 378 189 535 278 44 25 89 50 100 56 67 36 293 179
453 286 l187 125 3 3133 2 3132 -2585 0 -2585 0 0 -810 0 -810 1610 0 1610 0
0 -1959 0 -1959 -82 -45 c-282 -153 -537 -264 -838 -364 -145 -48 -502 -145
-585 -159 -16 -2 -37 -7 -45 -9 -36 -10 -401 -72 -470 -80 -30 -3 -62 -8 -70
-10 -8 -2 -42 -7 -75 -10 -111 -10 -170 -17 -195 -20 -14 -3 -63 -7 -110 -10
-47 -4 -101 -8 -120 -10 -253 -26 -1150 -27 -1410 -1 -19 2 -75 7 -124 11 -50
4 -97 8 -105 10 -9 1 -43 6 -76 9 -70 8 -85 10 -225 31 -58 8 -141 21 -185 30
-76 13 -95 17 -155 30 -31 7 -67 14 -101 20 -46 8 -302 75 -389 101 -573 173
-1114 448 -1504 764 -550 449 -921 935 -1244 1630 -76 164 -194 488 -275 755
-83 271 -167 677 -227 1090 -9 62 -32 261 -44 385 -3 25 -8 86 -11 135 -4 50
-8 106 -10 125 -12 130 -19 393 -20 760 0 365 4 510 20 815 3 46 12 159 20
245 2 19 7 69 10 110 4 41 9 83 11 94 2 10 6 44 9 75 4 31 8 67 10 81 2 14 6
43 9 65 10 77 16 121 20 142 3 12 8 43 12 70 3 26 8 57 10 68 3 11 7 36 10 55
3 19 15 78 26 130 10 52 22 106 24 120 3 14 12 54 20 90 9 36 18 76 20 89 16
82 113 415 165 567 106 310 209 548 350 809 100 187 110 203 190 324 38 57 69
107 69 111 0 5 4 10 8 12 5 2 23 25 41 51 150 220 447 542 681 738 36 30 67
57 70 60 11 13 240 178 305 220 442 288 915 490 1469 629 86 21 169 41 184 44
15 2 61 11 102 20 74 15 218 40 295 51 23 3 50 7 61 9 11 2 47 7 80 10 32 3
70 8 84 11 44 7 146 18 305 30 351 28 965 28 1275 0 25 -2 78 -7 119 -10 41
-4 81 -8 90 -10 9 -1 45 -6 81 -9 36 -4 76 -8 90 -11 14 -2 61 -9 105 -16 44
-6 89 -13 100 -15 11 -2 47 -8 80 -13 78 -12 305 -58 375 -76 30 -8 66 -16 80
-19 52 -9 452 -121 485 -135 11 -5 83 -30 160 -56 144 -49 427 -159 550 -215
39 -17 101 -46 140 -63 112 -51 388 -193 514 -264 432 -245 819 -512 1219
-840 l112 -93 -2 1052 -3 1051 -65 40 c-82 51 -331 197 -336 197 -2 0 -27 14
-56 31 -56 34 -502 259 -511 259 -3 0 -43 17 -89 39 -326 152 -885 354 -1263
457 -239 65 -613 152 -810 188 -69 13 -323 56 -360 61 -22 3 -53 7 -70 10 -16
3 -50 7 -75 10 -45 5 -103 13 -150 20 -14 2 -56 6 -95 10 -38 4 -83 8 -100 10
-54 7 -194 19 -355 30 -47 4 -112 9 -145 11 -68 5 -972 14 -977 9z"/>
</g>
</svg>
